<?xml version="1.0" encoding="utf-8"?><svg viewBox="0 0 502.66 502.66" xmlns="http://www.w3.org/2000/svg" xmlns:xlink="http://www.w3.org/1999/xlink"><style>:root>svg{display:none}:root>svg:target{display:block}</style><svg viewBox="0 0 16 17" id="calendar" xmlns="http://www.w3.org/2000/svg"><path d="M5.333 1.833v2m5.334-2v2M2.333 6.56h11.333M14 6.167v5.667c0 2-1 3.333-3.333 3.333H5.333C3 15.167 2 13.834 2 11.834V6.167c0-2 1-3.333 3.333-3.333h5.334C13 2.833 14 4.167 14 6.167zM10.463 9.634h.006m-.006 2h.006m-2.472-2h.006m-.006 2h.006m-2.473-2h.006m-.006 2h.006"/></svg><svg viewBox="0 0 40 40" id="envairmant" xmlns="http://www.w3.org/2000/svg"><circle cx="20" cy="20" r="20"/><path d="M23.156 16.343C18.9 18.623 12.556 23.852 10 29h2.45c.682-1.654 2.1-3.711 3.208-4.829C22.647 27.237 30 21.901 30 14.891c0-1.257-.252-2.566-.767-3.891-1.956 2.552-4.706.86-9.042 1.33-6.381.69-9.302 5.56-7.303 9.441 2.921-2.794 7.935-5.22 10.268-5.428z"/></svg><svg viewBox="0 0 502.664 502.664" id="icon" xmlns="http://www.w3.org/2000/svg"><path d="M153.821 358.226L0 274.337v-46.463l153.821-83.414v54.574L46.636 250.523l107.185 53.431v54.272zm26.273 29.358L282.103 115.08h32.227L212.084 387.584h-31.99zm168.749-29.358v-54.272l107.164-52.999-107.164-52.59v-53.927l153.821 83.522v46.183l-153.821 84.083z"/></svg><svg viewBox="0 0 16 17" id="location" xmlns="http://www.w3.org/2000/svg"><path d="M8 9.453a2.08 2.08 0 100-4.16 2.08 2.08 0 000 4.16z"/><path d="M2.414 6.16C3.727.387 12.28.393 13.587 6.167c.767 3.386-1.34 6.253-3.187 8.026a3.462 3.462 0 01-4.806 0c-1.84-1.773-3.947-4.646-3.18-8.033z"/></svg><svg viewBox="0 0 83 32" id="logo" xmlns="http://www.w3.org/2000/svg"><g clip-path="url(#ea)"><path d="M38.562 18.733l-.032-8.24-3.808 6.794h-3.119l-3.675-6.962v8.408h-6.663V.336h7.844l4.267 8.576L38.201.336h6.959l.065 18.397h-6.663z"/><path d="M54.973 19.07c-1.991 0-3.785-.404-5.383-1.211-1.576-.83-2.812-1.962-3.709-3.397-.897-1.457-1.346-3.105-1.346-4.944s.449-3.476 1.346-4.91c.897-1.458 2.133-2.59 3.71-3.397C51.186.403 52.98 0 54.972 0c2.013 0 3.807.403 5.383 1.21 1.597.808 2.833 1.94 3.708 3.398.898 1.435 1.346 3.072 1.346 4.91s-.448 3.486-1.346 4.944c-.875 1.435-2.111 2.567-3.708 3.397-1.576.807-3.37 1.21-5.383 1.21zm0-5.92c.853 0 1.553-.314 2.1-.942.548-.65.82-1.547.82-2.69 0-1.144-.272-2.03-.82-2.657-.547-.628-1.247-.942-2.1-.942-.854 0-1.554.314-2.1.942-.548.628-.821 1.513-.821 2.657 0 1.143.273 2.04.82 2.69.547.628 1.247.942 2.1.942z"/><path d="M74.171 19.07c-2.035 0-3.862-.404-5.481-1.211-1.598-.807-2.856-1.94-3.775-3.397-.897-1.457-1.345-3.105-1.345-4.944s.448-3.476 1.345-4.91c.919-1.458 2.177-2.59 3.775-3.397C70.309.403 72.136 0 74.17 0c2.188 0 4.059.482 5.612 1.446C81.338 2.41 82.41 3.744 83 5.448l-5.744 2.893c-.7-1.615-1.74-2.422-3.118-2.422-.875 0-1.608.314-2.199.942-.569.628-.853 1.513-.853 2.657 0 1.166.284 2.063.853 2.69.59.628 1.324.942 2.2.942 1.377 0 2.417-.807 3.117-2.421L83 13.62c-.59 1.704-1.663 3.038-3.216 4.002-1.554.965-3.425 1.446-5.613 1.446zM8.423 23.141c1.087.416 1.63 1.193 1.63 2.33 0 .918-.356 1.64-1.068 2.165-.713.514-1.758.771-3.134.771H0V18.371h5.561c1.328 0 2.361.233 3.098.697.736.453 1.105 1.095 1.105 1.927a2.3 2.3 0 01-.345 1.247c-.229.367-.561.667-.996.9zm-4.837-.807h1.612c.592 0 .888-.238.888-.715 0-.233-.073-.404-.217-.514-.133-.11-.357-.165-.67-.165H3.585v1.394zm1.902 3.504c.592 0 .888-.25.888-.752 0-.477-.296-.715-.888-.715H3.586v1.467H5.49z"/><path d="M14.87 28.59c-1.098 0-2.088-.22-2.97-.66-.87-.453-1.552-1.07-2.047-1.853-.495-.795-.743-1.695-.743-2.697 0-1.003.248-1.896.743-2.68a5.04 5.04 0 012.047-1.852c.881-.44 1.871-.66 2.97-.66 1.112 0 2.102.22 2.972.66.88.44 1.563 1.058 2.046 1.853.495.782.743 1.675.743 2.679 0 1.003-.247 1.902-.743 2.696-.483.783-1.165 1.401-2.047 1.854-.87.44-1.86.66-2.97.66zm0-3.229c.471 0 .858-.171 1.16-.514.302-.354.453-.844.453-1.467 0-.624-.151-1.107-.453-1.45a1.477 1.477 0 00-1.16-.514c-.47 0-.857.172-1.159.514-.302.343-.453.826-.453 1.45 0 .623.151 1.113.453 1.467.302.343.688.514 1.16.514z"/><path d="M30.742 18.371v10.036h-4.094V21.6h-1.865l-.055 1.302c-.048 1.297-.181 2.361-.398 3.193-.218.831-.58 1.473-1.087 1.926-.495.44-1.178.66-2.047.66-.543 0-1.178-.091-1.902-.274l.163-3.358c.193.024.332.036.416.036.496 0 .822-.177.979-.532.157-.367.253-.972.29-1.816l.144-4.366h9.456z"/><path d="M36.145 28.59c-1.099 0-2.09-.22-2.97-.66-.87-.453-1.552-1.07-2.047-1.853-.495-.795-.743-1.695-.743-2.697 0-1.003.247-1.896.742-2.68a5.036 5.036 0 012.048-1.852c.88-.44 1.871-.66 2.97-.66 1.111 0 2.101.22 2.971.66.881.44 1.564 1.058 2.047 1.853.495.782.743 1.675.743 2.679 0 1.003-.248 1.902-.743 2.696-.483.783-1.166 1.401-2.047 1.854-.87.44-1.86.66-2.971.66zm0-3.229c.471 0 .858-.171 1.16-.514.302-.354.452-.844.452-1.467 0-.624-.15-1.107-.453-1.45a1.475 1.475 0 00-1.159-.514c-.47 0-.857.172-1.16.514-.301.343-.452.826-.452 1.45 0 .623.151 1.113.453 1.467.302.343.688.514 1.16.514z"/><path d="M41.542 18.371h4.076v3.523h2.79V18.37h4.075v10.036h-4.076V25.14h-2.79v3.266h-4.075V18.371z"/><path d="M62.156 21.6H59.13v6.807h-4.075V21.6h-3.026v-3.229h10.127v3.23z"/><path d="M71.765 23.38c0 .06-.018.385-.054.972h-6.884c.136.369.392.68.725.88.338.196.76.294 1.268.294.435 0 .797-.055 1.087-.165.302-.11.628-.3.978-.569l2.137 2.183c-.966 1.077-2.41 1.615-4.33 1.615-1.194 0-2.245-.22-3.151-.66-.906-.453-1.606-1.077-2.101-1.872-.495-.795-.743-1.688-.743-2.678 0-1.003.242-1.896.725-2.68a5.096 5.096 0 012.01-1.852c.858-.44 1.818-.66 2.88-.66 1.003 0 1.915.201 2.736.605a4.66 4.66 0 011.974 1.78c.495.782.743 1.718.743 2.807zm-5.416-2.367c-.423 0-.773.116-1.051.349-.278.232-.459.562-.543.99h3.188c-.085-.415-.266-.74-.544-.972-.277-.245-.627-.367-1.05-.367z"/><path d="M78.218 18.188c.87 0 1.667.214 2.391.642.737.416 1.317 1.021 1.74 1.816.434.795.651 1.712.651 2.752 0 1.04-.217 1.957-.652 2.752a4.552 4.552 0 01-1.739 1.816 4.717 4.717 0 01-2.39.624c-1.1 0-1.939-.288-2.519-.862v4.238h-4.094V18.37h3.895v.826c.592-.673 1.498-1.01 2.717-1.01zm-.978 7.173c.471 0 .858-.171 1.16-.514.301-.342.452-.826.452-1.45 0-.623-.15-1.106-.453-1.449a1.454 1.454 0 00-1.159-.532c-.471 0-.857.178-1.16.532-.301.343-.452.826-.452 1.45s.151 1.107.453 1.45c.302.342.688.513 1.16.513z"/></g><defs><clipPath id="ea"><path d="M0 0h83v32H0z"/></clipPath></defs></svg></svg>