<svg width="190" height="64" viewBox="0 0 190 64" fill="none" xmlns="http://www.w3.org/2000/svg">
<circle cx="32" cy="32" r="32" fill="#FFF5DD"/>
<g clip-path="url(#clip0_305_1356)">
<path d="M28.2005 45.1136C26.7846 44.7475 25.438 44.6915 24.0925 44.6192C22.809 44.5502 21.5292 44.4922 20.2751 44.1529C17.6132 43.4297 16.7461 40.6199 18.1984 38.4515C19.0663 37.1535 20.2564 36.2234 21.6356 35.5395C22.8121 34.9569 24.0081 34.4127 25.0533 33.6029C25.8311 32.9996 26.5847 32.3634 27.3473 31.7428C28.0942 31.1313 28.8465 30.5245 29.7349 30.1265C31.2937 29.4277 32.8163 29.4945 34.2616 30.4184C34.9943 30.8864 35.4597 31.5975 35.7372 32.404C36.0156 33.2074 36.2174 34.0367 36.4481 34.8572C37.0228 36.9161 37.8524 38.8644 38.9848 40.6719C39.7619 41.9137 40.2917 43.2251 40.2246 44.7244C40.1831 45.621 39.9024 46.4337 39.3631 47.1605C38.5005 48.3274 37.3764 48.7517 35.971 48.4082C34.9011 48.1481 33.9306 47.6528 32.9409 47.1922C31.5653 46.5519 30.1817 45.9294 28.7941 45.3091C28.5753 45.2108 28.3318 45.1554 28.2005 45.1136Z" fill="#A58C50"/>
<path d="M43.7877 25.1092C43.2896 26.7581 42.3889 28.203 40.8945 29.2304C40.3581 29.6002 39.7693 29.8565 39.1277 29.9762C37.6209 30.2582 36.2555 29.5677 35.5904 28.1802C35.0249 27.0017 34.979 25.7637 35.2594 24.507C35.6942 22.5629 36.6688 20.9655 38.3394 19.8495C39.2273 19.2559 40.2068 18.9386 41.2745 19.1451C42.6509 19.4113 43.4364 20.3373 43.8337 21.6364C44.1764 22.7685 44.0967 23.9066 43.7877 25.1092Z" fill="#A58C50"/>
<path d="M33.0063 23.7424C32.66 24.9483 32.1565 25.9497 31.3048 26.7418C29.7041 28.2278 27.5859 28.0842 26.2305 26.3794C25.1967 25.082 24.8629 23.5581 24.9548 21.9296C25.0356 20.4902 25.4586 19.1591 26.3727 18.0226C27.0973 17.1235 27.9988 16.5037 29.1845 16.4802C30.5767 16.4524 31.5578 17.1923 32.2662 18.3197C33.1749 19.7624 33.3771 21.3571 33.1409 23.0298C33.1014 23.3008 33.0387 23.5722 33.0063 23.7424Z" fill="#A58C50"/>
<path d="M47.476 34.8344C46.9211 36.5343 45.8015 38.0299 43.9284 38.8631C43.0141 39.2708 42.0631 39.3704 41.1452 38.8893C40.0441 38.3126 39.6747 37.2927 39.6588 36.1156C39.6302 33.7127 41.4998 31.0996 43.7675 30.339C44.5497 30.0782 45.3361 30.0239 46.0996 30.3643C47.0026 30.7653 47.4727 31.5207 47.6546 32.4738C47.79 33.1926 47.7183 33.9055 47.476 34.8344Z" fill="#A58C50"/>
<path d="M23.8488 30.4549C23.6431 31.1981 23.3273 31.8821 22.7999 32.4531C21.7461 33.5919 20.2426 33.7258 19.0259 32.7769C18.0123 31.9852 17.4568 30.9054 17.199 29.6669C16.8471 27.9758 16.9925 26.3451 18.0214 24.8914C18.6933 23.9418 19.6144 23.4465 20.7986 23.6512C21.6314 23.7948 22.2729 24.2814 22.7788 24.9404C23.875 26.3638 24.203 27.9955 23.9855 29.7593C23.9649 29.9228 23.935 30.0837 23.9012 30.2469C23.8923 30.3174 23.8671 30.3869 23.8488 30.4549Z" fill="#A58C50"/>
</g>
<path d="M84.06 39C83.94 39 83.8333 38.9533 83.74 38.86C83.66 38.7667 83.62 38.66 83.62 38.54C83.62 38.4333 83.6333 38.36 83.66 38.32L87.82 31.76L84.04 25.66C83.9867 25.5667 83.96 25.4867 83.96 25.42C83.96 25.3 83.9933 25.2 84.06 25.12C84.1267 25.04 84.2333 25 84.38 25H86.34C86.5267 25 86.6733 25.0333 86.78 25.1C86.9 25.1667 86.9933 25.2533 87.06 25.36L90.32 30.68H91.94V25.48C91.94 25.3467 91.9867 25.2333 92.08 25.14C92.1733 25.0467 92.2867 25 92.42 25H94.16C94.3067 25 94.42 25.0467 94.5 25.14C94.5933 25.2333 94.64 25.3467 94.64 25.48V30.68H96.26L99.52 25.36C99.5867 25.2533 99.6733 25.1667 99.78 25.1C99.9 25.0333 100.053 25 100.24 25H102.22C102.353 25 102.453 25.04 102.52 25.12C102.6 25.2 102.64 25.3 102.64 25.42C102.64 25.4867 102.613 25.5667 102.56 25.66L98.78 31.76L102.94 38.32C102.967 38.36 102.98 38.4333 102.98 38.54C102.98 38.66 102.933 38.7667 102.84 38.86C102.76 38.9533 102.653 39 102.52 39H100.48C100.293 39 100.153 38.96 100.06 38.88C99.98 38.8 99.9133 38.7267 99.86 38.66L96.38 33.16H94.64V38.54C94.64 38.6733 94.5933 38.7867 94.5 38.88C94.42 38.96 94.3067 39 94.16 39H92.42C92.2867 39 92.1733 38.96 92.08 38.88C91.9867 38.7867 91.94 38.6667 91.94 38.52V33.16H90.2L86.72 38.66C86.68 38.7267 86.6133 38.8 86.52 38.88C86.44 38.96 86.3067 39 86.12 39H84.06ZM105.385 39C105.265 39 105.159 38.9533 105.065 38.86C104.972 38.7667 104.925 38.66 104.925 38.54V29.08C104.925 28.9467 104.972 28.8333 105.065 28.74C105.159 28.6467 105.272 28.6 105.405 28.6H107.065C107.212 28.6 107.325 28.6467 107.405 28.74C107.499 28.8333 107.545 28.9467 107.545 29.08V36.98L106.845 36.48L112.345 28.92C112.412 28.8267 112.485 28.7533 112.565 28.7C112.645 28.6333 112.752 28.6 112.885 28.6H114.405C114.525 28.6 114.632 28.6467 114.725 28.74C114.819 28.82 114.865 28.92 114.865 29.04V38.52C114.865 38.6533 114.819 38.7667 114.725 38.86C114.632 38.9533 114.519 39 114.385 39H112.725C112.579 39 112.459 38.9533 112.365 38.86C112.285 38.7667 112.245 38.6533 112.245 38.52V30.98L112.985 31.08L107.445 38.68C107.392 38.76 107.319 38.8333 107.225 38.9C107.145 38.9667 107.039 39 106.905 39H105.385ZM117.866 39C117.733 39 117.62 38.9533 117.526 38.86C117.433 38.7667 117.386 38.6533 117.386 38.52V29.08C117.386 28.9467 117.433 28.8333 117.526 28.74C117.62 28.6467 117.733 28.6 117.866 28.6H122.306C123.72 28.6 124.766 28.86 125.446 29.38C126.126 29.9 126.466 30.6 126.466 31.48C126.466 32.04 126.36 32.4733 126.146 32.78C125.933 33.0867 125.64 33.3533 125.266 33.58C125.733 33.7933 126.093 34.12 126.346 34.56C126.613 34.9867 126.746 35.46 126.746 35.98C126.746 36.94 126.386 37.6867 125.666 38.22C124.96 38.74 123.913 39 122.526 39H117.866ZM119.946 37.2H122.346C122.88 37.2 123.306 37.1 123.626 36.9C123.946 36.7 124.106 36.3867 124.106 35.96C124.106 35.52 123.96 35.2 123.666 35C123.373 34.8 122.933 34.7 122.346 34.7H119.946V37.2ZM119.946 32.84H122.266C122.8 32.84 123.22 32.7333 123.526 32.52C123.833 32.2933 123.986 31.9667 123.986 31.54C123.986 31.1133 123.826 30.82 123.506 30.66C123.2 30.4867 122.786 30.4 122.266 30.4H119.946V32.84ZM133.647 39.2C132.58 39.2 131.68 39.0133 130.947 38.64C130.227 38.2667 129.673 37.74 129.287 37.06C128.913 36.38 128.7 35.5867 128.647 34.68C128.633 34.44 128.627 34.1467 128.627 33.8C128.627 33.4533 128.633 33.16 128.647 32.92C128.7 32 128.92 31.2067 129.307 30.54C129.707 29.86 130.267 29.3333 130.987 28.96C131.72 28.5867 132.607 28.4 133.647 28.4C134.687 28.4 135.567 28.5867 136.287 28.96C137.02 29.3333 137.58 29.86 137.967 30.54C138.367 31.2067 138.593 32 138.647 32.92C138.66 33.16 138.667 33.4533 138.667 33.8C138.667 34.1467 138.66 34.44 138.647 34.68C138.593 35.5867 138.373 36.38 137.987 37.06C137.613 37.74 137.06 38.2667 136.327 38.64C135.607 39.0133 134.713 39.2 133.647 39.2ZM133.647 37.22C134.353 37.22 134.9 37 135.287 36.56C135.673 36.1067 135.887 35.4467 135.927 34.58C135.94 34.38 135.947 34.12 135.947 33.8C135.947 33.48 135.94 33.22 135.927 33.02C135.887 32.1667 135.673 31.5133 135.287 31.06C134.9 30.6067 134.353 30.38 133.647 30.38C132.94 30.38 132.393 30.6067 132.007 31.06C131.62 31.5133 131.407 32.1667 131.367 33.02C131.353 33.22 131.347 33.48 131.347 33.8C131.347 34.12 131.353 34.38 131.367 34.58C131.407 35.4467 131.62 36.1067 132.007 36.56C132.393 37 132.94 37.22 133.647 37.22ZM144.063 39C143.916 39 143.796 38.9533 143.703 38.86C143.623 38.7667 143.583 38.6533 143.583 38.52V30.72H140.323C140.176 30.72 140.056 30.6733 139.963 30.58C139.883 30.4867 139.843 30.3733 139.843 30.24V29.08C139.843 28.9467 139.883 28.8333 139.963 28.74C140.056 28.6467 140.176 28.6 140.323 28.6H149.403C149.549 28.6 149.669 28.6467 149.763 28.74C149.856 28.8333 149.903 28.9467 149.903 29.08V30.24C149.903 30.3733 149.856 30.4867 149.763 30.58C149.669 30.6733 149.549 30.72 149.403 30.72H146.163V38.52C146.163 38.6533 146.116 38.7667 146.023 38.86C145.929 38.9533 145.816 39 145.683 39H144.063ZM151.968 39C151.835 39 151.721 38.9533 151.628 38.86C151.535 38.7667 151.488 38.6533 151.488 38.52V29.08C151.488 28.9467 151.535 28.8333 151.628 28.74C151.721 28.6467 151.835 28.6 151.968 28.6H153.628C153.775 28.6 153.888 28.6467 153.968 28.74C154.061 28.8333 154.108 28.9467 154.108 29.08V32.66H158.628V29.08C158.628 28.9467 158.675 28.8333 158.768 28.74C158.861 28.6467 158.975 28.6 159.108 28.6H160.768C160.901 28.6 161.015 28.6467 161.108 28.74C161.201 28.8333 161.248 28.9467 161.248 29.08V38.52C161.248 38.6533 161.201 38.7667 161.108 38.86C161.015 38.9533 160.901 39 160.768 39H159.108C158.975 39 158.861 38.9533 158.768 38.86C158.675 38.7667 158.628 38.6533 158.628 38.52V34.76H154.108V38.52C154.108 38.6533 154.061 38.7667 153.968 38.86C153.888 38.9533 153.775 39 153.628 39H151.968ZM164.429 39C164.296 39 164.182 38.9533 164.089 38.86C163.996 38.7667 163.949 38.6533 163.949 38.52V29.08C163.949 28.9467 163.996 28.8333 164.089 28.74C164.182 28.6467 164.296 28.6 164.429 28.6H166.109C166.242 28.6 166.356 28.6467 166.449 28.74C166.542 28.8333 166.589 28.9467 166.589 29.08V31.9H168.529C169.889 31.9 170.909 32.22 171.589 32.86C172.269 33.5 172.609 34.38 172.609 35.5C172.609 36.66 172.242 37.5333 171.509 38.12C170.789 38.7067 169.742 39 168.369 39H164.429ZM166.549 37.1H168.309C168.962 37.1 169.442 36.98 169.749 36.74C170.069 36.5 170.229 36.0867 170.229 35.5C170.229 34.9267 170.076 34.5 169.769 34.22C169.476 33.94 168.989 33.8 168.309 33.8H166.549V37.1ZM174.409 39C174.276 39 174.162 38.9533 174.069 38.86C173.976 38.7667 173.929 38.6533 173.929 38.52V29.08C173.929 28.9467 173.976 28.8333 174.069 28.74C174.162 28.6467 174.276 28.6 174.409 28.6H176.069C176.216 28.6 176.329 28.6467 176.409 28.74C176.502 28.8333 176.549 28.9467 176.549 29.08V38.52C176.549 38.6533 176.502 38.7667 176.409 38.86C176.329 38.9533 176.216 39 176.069 39H174.409ZM183.722 39.2C182.242 39.2 181.069 38.7733 180.202 37.92C179.335 37.0667 178.869 35.8533 178.802 34.28C178.789 34.1467 178.782 33.98 178.782 33.78C178.782 33.5667 178.789 33.4 178.802 33.28C178.855 32.28 179.082 31.4133 179.482 30.68C179.895 29.9467 180.462 29.3867 181.182 29C181.902 28.6 182.749 28.4 183.722 28.4C184.802 28.4 185.709 28.6267 186.442 29.08C187.175 29.52 187.729 30.14 188.102 30.94C188.475 31.7267 188.662 32.64 188.662 33.68V34.1C188.662 34.2333 188.615 34.3467 188.522 34.44C188.429 34.5333 188.309 34.58 188.162 34.58H181.522C181.522 34.58 181.522 34.6 181.522 34.64C181.522 34.68 181.522 34.7133 181.522 34.74C181.535 35.2067 181.622 35.64 181.782 36.04C181.955 36.4267 182.202 36.74 182.522 36.98C182.855 37.22 183.249 37.34 183.702 37.34C184.075 37.34 184.389 37.2867 184.642 37.18C184.895 37.06 185.102 36.9267 185.262 36.78C185.422 36.6333 185.535 36.5133 185.602 36.42C185.722 36.26 185.815 36.1667 185.882 36.14C185.962 36.1 186.075 36.08 186.222 36.08H187.942C188.075 36.08 188.182 36.12 188.262 36.2C188.355 36.28 188.395 36.38 188.382 36.5C188.369 36.7133 188.255 36.9733 188.042 37.28C187.842 37.5867 187.549 37.8867 187.162 38.18C186.775 38.4733 186.289 38.72 185.702 38.92C185.129 39.1067 184.469 39.2 183.722 39.2ZM181.522 32.9H185.942V32.84C185.942 32.32 185.855 31.8667 185.682 31.48C185.509 31.0933 185.255 30.7867 184.922 30.56C184.589 30.3333 184.189 30.22 183.722 30.22C183.255 30.22 182.855 30.3333 182.522 30.56C182.189 30.7867 181.935 31.0933 181.762 31.48C181.602 31.8667 181.522 32.32 181.522 32.84V32.9Z" fill="#2F2A1F"/>
<defs>
<clipPath id="clip0_305_1356">
<rect width="32" height="32" fill="white" transform="translate(20.6875 12.4038) rotate(15)"/>
</clipPath>
</defs>
</svg>
