<svg width="24" height="24" viewBox="0 0 24 24" fill="none" xmlns="http://www.w3.org/2000/svg">
<path d="M16.8997 22H7.09976C5.39976 22 3.99976 20.61 3.99976 18.9V5.10001C3.99976 3.40001 5.38976 2 7.09976 2H16.8997C18.5997 2 19.9998 3.39001 19.9998 5.10001V18.9C19.9998 20.61 18.6097 22 16.8997 22Z" stroke="#70959A" stroke-width="1.5" stroke-linecap="round" stroke-linejoin="round"/>
<path d="M18.4998 13H5.49976C4.66976 13 3.99976 12.33 3.99976 11.5V9.5C3.99976 8.67 4.66976 8 5.49976 8H18.4998C19.3298 8 19.9998 8.67 19.9998 9.5V11.5C19.9998 12.33 19.3298 13 18.4998 13Z" stroke="#70959A" stroke-width="1.5" stroke-linecap="round" stroke-linejoin="round"/>
<path d="M8.49475 17.7002H8.50373" stroke="#70959A" stroke-width="2.5" stroke-linecap="round" stroke-linejoin="round"/>
<path d="M15.4945 17.7002H15.5035" stroke="#70959A" stroke-width="2.5" stroke-linecap="round" stroke-linejoin="round"/>
<path d="M9.50024 5H14.5002" stroke="#70959A" stroke-width="1.5" stroke-linecap="round" stroke-linejoin="round"/>
</svg>
