<svg width="177" height="64" viewBox="0 0 177 64" fill="none" xmlns="http://www.w3.org/2000/svg">
<circle cx="32" cy="32" r="32" fill="#E6F4F6"/>
<path d="M37.0493 26.609C30.24 30.2802 20.0893 38.706 16 47H19.9187C21.0107 44.336 23.2813 41.0207 25.0533 39.2201C36.2347 44.1593 48 35.5621 48 24.268C48 22.2445 47.5973 20.1341 46.7733 18C43.644 22.1114 39.244 19.3867 32.3053 20.142C22.096 21.2546 17.4227 29.1017 20.62 35.3539C25.2947 30.8523 33.3173 26.9439 37.0493 26.609Z" fill="#70959A"/>
<path d="M89.46 39.2C88.46 39.2 87.5533 39.0533 86.74 38.76C85.94 38.4533 85.2867 38.0267 84.78 37.48C84.2867 36.92 84 36.26 83.92 35.5C83.9067 35.38 83.94 35.28 84.02 35.2C84.1133 35.12 84.22 35.08 84.34 35.08H86.18C86.3133 35.08 86.4133 35.1133 86.48 35.18C86.56 35.2333 86.6333 35.3267 86.7 35.46C86.8467 35.8733 87.14 36.22 87.58 36.5C88.02 36.78 88.6333 36.92 89.42 36.92C90.3533 36.92 91.08 36.62 91.6 36.02C92.12 35.4067 92.38 34.5533 92.38 33.46V33.08H88C87.8667 33.08 87.7533 33.0333 87.66 32.94C87.5667 32.8333 87.52 32.7067 87.52 32.56V31.42C87.52 31.2733 87.5667 31.1533 87.66 31.06C87.7533 30.9667 87.8667 30.92 88 30.92H92.38V30.56C92.38 29.3733 92.12 28.5 91.6 27.94C91.08 27.38 90.3533 27.1 89.42 27.1C88.6333 27.1 88.02 27.2467 87.58 27.54C87.14 27.82 86.8667 28.16 86.76 28.56C86.6933 28.6933 86.6267 28.7933 86.56 28.86C86.4933 28.9133 86.38 28.94 86.22 28.94H84.38C84.26 28.94 84.1533 28.9 84.06 28.82C83.98 28.74 83.9467 28.64 83.96 28.52C84.0533 27.72 84.3467 27.0467 84.84 26.5C85.3333 25.9533 85.9733 25.5333 86.76 25.24C87.56 24.9467 88.46 24.8 89.46 24.8C90.5667 24.8 91.5467 25 92.4 25.4C93.2533 25.8 93.9267 26.4333 94.42 27.3C94.9133 28.1533 95.1867 29.2667 95.24 30.64C95.2533 31 95.26 31.32 95.26 31.6C95.26 31.88 95.26 32.16 95.26 32.44C95.26 32.7067 95.2533 33.0133 95.24 33.36C95.1867 34.7467 94.9133 35.8667 94.42 36.72C93.9267 37.5733 93.2533 38.2 92.4 38.6C91.56 39 90.58 39.2 89.46 39.2ZM98.1203 39C97.987 39 97.8736 38.9533 97.7803 38.86C97.687 38.7667 97.6403 38.6533 97.6403 38.52V29.08C97.6403 28.9467 97.687 28.8333 97.7803 28.74C97.8736 28.6467 97.987 28.6 98.1203 28.6H99.7603C99.8936 28.6 100.007 28.6467 100.1 28.74C100.194 28.8333 100.24 28.9467 100.24 29.08V32.66H101.68L104.12 28.92C104.174 28.8267 104.24 28.7533 104.32 28.7C104.414 28.6333 104.534 28.6 104.68 28.6H106.46C106.594 28.6 106.7 28.6333 106.78 28.7C106.86 28.7667 106.9 28.8533 106.9 28.96C106.9 29 106.887 29.0467 106.86 29.1C106.847 29.14 106.827 29.18 106.8 29.22L103.92 33.6L107.22 38.38C107.287 38.46 107.32 38.5467 107.32 38.64C107.32 38.7467 107.28 38.8333 107.2 38.9C107.12 38.9667 107.02 39 106.9 39H104.88C104.747 39 104.634 38.9733 104.54 38.92C104.46 38.8667 104.387 38.7933 104.32 38.7L101.68 34.78H100.24V38.52C100.24 38.6533 100.194 38.7667 100.1 38.86C100.007 38.9533 99.8936 39 99.7603 39H98.1203ZM113.666 39.2C112.599 39.2 111.699 39.0133 110.966 38.64C110.246 38.2667 109.693 37.74 109.306 37.06C108.933 36.38 108.719 35.5867 108.666 34.68C108.653 34.44 108.646 34.1467 108.646 33.8C108.646 33.4533 108.653 33.16 108.666 32.92C108.719 32 108.939 31.2067 109.326 30.54C109.726 29.86 110.286 29.3333 111.006 28.96C111.739 28.5867 112.626 28.4 113.666 28.4C114.706 28.4 115.586 28.5867 116.306 28.96C117.039 29.3333 117.599 29.86 117.986 30.54C118.386 31.2067 118.613 32 118.666 32.92C118.679 33.16 118.686 33.4533 118.686 33.8C118.686 34.1467 118.679 34.44 118.666 34.68C118.613 35.5867 118.393 36.38 118.006 37.06C117.633 37.74 117.079 38.2667 116.346 38.64C115.626 39.0133 114.733 39.2 113.666 39.2ZM113.666 37.22C114.373 37.22 114.919 37 115.306 36.56C115.693 36.1067 115.906 35.4467 115.946 34.58C115.959 34.38 115.966 34.12 115.966 33.8C115.966 33.48 115.959 33.22 115.946 33.02C115.906 32.1667 115.693 31.5133 115.306 31.06C114.919 30.6067 114.373 30.38 113.666 30.38C112.959 30.38 112.413 30.6067 112.026 31.06C111.639 31.5133 111.426 32.1667 111.386 33.02C111.373 33.22 111.366 33.48 111.366 33.8C111.366 34.12 111.373 34.38 111.386 34.58C111.426 35.4467 111.639 36.1067 112.026 36.56C112.413 37 112.959 37.22 113.666 37.22ZM120.582 39C120.435 39 120.315 38.9533 120.222 38.86C120.129 38.7667 120.082 38.6467 120.082 38.5V37.26C120.082 36.9667 120.235 36.8067 120.542 36.78C120.942 36.7533 121.262 36.5667 121.502 36.22C121.742 35.8733 121.915 35.34 122.022 34.62C122.129 33.8867 122.182 32.94 122.182 31.78V29.08C122.182 28.9467 122.229 28.8333 122.322 28.74C122.415 28.6467 122.535 28.6 122.682 28.6H129.782C129.915 28.6 130.029 28.6467 130.122 28.74C130.215 28.8333 130.262 28.9467 130.262 29.08V38.52C130.262 38.6533 130.215 38.7667 130.122 38.86C130.029 38.9533 129.915 39 129.782 39H128.122C127.975 39 127.855 38.9533 127.762 38.86C127.682 38.7667 127.642 38.6533 127.642 38.52V30.72H124.702V32.06C124.702 33.34 124.629 34.4267 124.482 35.32C124.349 36.2 124.115 36.9133 123.782 37.46C123.462 37.9933 123.035 38.3867 122.502 38.64C121.982 38.88 121.342 39 120.582 39ZM137.553 39.2C136.486 39.2 135.586 39.0133 134.853 38.64C134.133 38.2667 133.579 37.74 133.193 37.06C132.819 36.38 132.606 35.5867 132.553 34.68C132.539 34.44 132.533 34.1467 132.533 33.8C132.533 33.4533 132.539 33.16 132.553 32.92C132.606 32 132.826 31.2067 133.213 30.54C133.613 29.86 134.173 29.3333 134.893 28.96C135.626 28.5867 136.513 28.4 137.553 28.4C138.593 28.4 139.473 28.5867 140.193 28.96C140.926 29.3333 141.486 29.86 141.873 30.54C142.273 31.2067 142.499 32 142.553 32.92C142.566 33.16 142.573 33.4533 142.573 33.8C142.573 34.1467 142.566 34.44 142.553 34.68C142.499 35.5867 142.279 36.38 141.893 37.06C141.519 37.74 140.966 38.2667 140.233 38.64C139.513 39.0133 138.619 39.2 137.553 39.2ZM137.553 37.22C138.259 37.22 138.806 37 139.193 36.56C139.579 36.1067 139.793 35.4467 139.833 34.58C139.846 34.38 139.853 34.12 139.853 33.8C139.853 33.48 139.846 33.22 139.833 33.02C139.793 32.1667 139.579 31.5133 139.193 31.06C138.806 30.6067 138.259 30.38 137.553 30.38C136.846 30.38 136.299 30.6067 135.913 31.06C135.526 31.5133 135.313 32.1667 135.273 33.02C135.259 33.22 135.253 33.48 135.253 33.8C135.253 34.12 135.259 34.38 135.273 34.58C135.313 35.4467 135.526 36.1067 135.913 36.56C136.299 37 136.846 37.22 137.553 37.22ZM145.269 39C145.135 39 145.022 38.9533 144.929 38.86C144.835 38.7667 144.789 38.6533 144.789 38.52V29.08C144.789 28.9467 144.835 28.8333 144.929 28.74C145.022 28.6467 145.135 28.6 145.269 28.6H151.609C151.742 28.6 151.855 28.6467 151.949 28.74C152.042 28.8333 152.089 28.9467 152.089 29.08V30.24C152.089 30.3733 152.042 30.4867 151.949 30.58C151.855 30.6733 151.742 30.72 151.609 30.72H147.409V38.52C147.409 38.6533 147.362 38.7667 147.269 38.86C147.189 38.9533 147.075 39 146.929 39H145.269ZM154.155 39C154.035 39 153.928 38.9533 153.835 38.86C153.742 38.7667 153.695 38.66 153.695 38.54V29.08C153.695 28.9467 153.742 28.8333 153.835 28.74C153.928 28.6467 154.042 28.6 154.175 28.6H155.835C155.982 28.6 156.095 28.6467 156.175 28.74C156.268 28.8333 156.315 28.9467 156.315 29.08V36.98L155.615 36.48L161.115 28.92C161.182 28.8267 161.255 28.7533 161.335 28.7C161.415 28.6333 161.522 28.6 161.655 28.6H163.175C163.295 28.6 163.402 28.6467 163.495 28.74C163.588 28.82 163.635 28.92 163.635 29.04V38.52C163.635 38.6533 163.588 38.7667 163.495 38.86C163.402 38.9533 163.288 39 163.155 39H161.495C161.348 39 161.228 38.9533 161.135 38.86C161.055 38.7667 161.015 38.6533 161.015 38.52V30.98L161.755 31.08L156.215 38.68C156.162 38.76 156.088 38.8333 155.995 38.9C155.915 38.9667 155.808 39 155.675 39H154.155ZM172.756 39C172.609 39 172.489 38.9533 172.396 38.86C172.316 38.7667 172.276 38.6533 172.276 38.52V35.46H170.296V35.36C168.949 35.36 167.936 35.0533 167.256 34.44C166.589 33.8133 166.256 32.9933 166.256 31.98C166.256 30.86 166.609 30.02 167.316 29.46C168.023 28.8867 169.043 28.6 170.376 28.6H174.456C174.589 28.6 174.703 28.6467 174.796 28.74C174.889 28.8333 174.936 28.9467 174.936 29.08V38.52C174.936 38.6533 174.889 38.7667 174.796 38.86C174.703 38.9533 174.589 39 174.456 39H172.756ZM166.356 39C166.236 39 166.136 38.96 166.056 38.88C165.976 38.8 165.936 38.7067 165.936 38.6C165.936 38.56 165.943 38.5133 165.956 38.46C165.969 38.3933 166.003 38.3333 166.056 38.28L168.296 34.76L170.736 35.08L168.516 38.7C168.476 38.78 168.409 38.8533 168.316 38.92C168.223 38.9733 168.123 39 168.016 39H166.356ZM170.316 33.56H172.316V30.5H170.436C169.823 30.5 169.369 30.6133 169.076 30.84C168.783 31.0533 168.636 31.4333 168.636 31.98C168.636 32.4467 168.769 32.8267 169.036 33.12C169.316 33.4133 169.743 33.56 170.316 33.56Z" fill="#2F2A1F"/>
</svg>
