<svg width="215" height="64" viewBox="0 0 215 64" fill="none" xmlns="http://www.w3.org/2000/svg">
<circle cx="32" cy="32" r="32" fill="#F9EFE7"/>
<path d="M38.4398 36.8535C39.3332 36.2669 40.5065 36.9069 40.5065 37.9735V39.6935C40.5065 41.3869 39.1865 43.2002 37.5998 43.7335L33.3465 45.1469C32.5998 45.4002 31.3865 45.4002 30.6532 45.1469L26.3998 43.7335C24.7998 43.2002 23.4932 41.3869 23.4932 39.6935V37.9602C23.4932 36.9069 24.6665 36.2669 25.5465 36.8402L28.2932 38.6269C29.3465 39.3335 30.6798 39.6802 32.0132 39.6802C33.3465 39.6802 34.6798 39.3335 35.7332 38.6269L38.4398 36.8535Z" fill="#B78277"/>
<path d="M42.64 24.6136L34.6534 19.3736C33.2134 18.4269 30.84 18.4269 29.4 19.3736L21.3734 24.6136C18.8 26.2802 18.8 30.0536 21.3734 31.7336L23.5067 33.1202L29.4 36.9602C30.84 37.9069 33.2134 37.9069 34.6534 36.9602L40.5067 33.1202L42.3334 31.9202V36.0002C42.3334 36.5469 42.7867 37.0002 43.3334 37.0002C43.88 37.0002 44.3334 36.5469 44.3334 36.0002V29.4402C44.8667 27.7202 44.32 25.7202 42.64 24.6136Z" fill="#B78277"/>
<path d="M89.94 39.2C88.7533 39.2 87.7333 39.0067 86.88 38.62C86.0267 38.22 85.36 37.6133 84.88 36.8C84.4 35.9733 84.14 34.9467 84.1 33.72C84.0867 33.1467 84.08 32.58 84.08 32.02C84.08 31.46 84.0867 30.8867 84.1 30.3C84.14 29.0867 84.4067 28.0733 84.9 27.26C85.3933 26.4467 86.0667 25.8333 86.92 25.42C87.7867 25.0067 88.7933 24.8 89.94 24.8C91.0867 24.8 92.0933 25.0067 92.96 25.42C93.8267 25.8333 94.5067 26.4467 95 27.26C95.4933 28.0733 95.76 29.0867 95.8 30.3C95.8267 30.8867 95.84 31.46 95.84 32.02C95.84 32.58 95.8267 33.1467 95.8 33.72C95.76 34.9467 95.5 35.9733 95.02 36.8C94.54 37.6133 93.8667 38.22 93 38.62C92.1467 39.0067 91.1267 39.2 89.94 39.2ZM89.94 36.9C90.8067 36.9 91.5133 36.6467 92.06 36.14C92.6067 35.62 92.9 34.78 92.94 33.62C92.9667 33.0333 92.98 32.4933 92.98 32C92.98 31.4933 92.9667 30.9533 92.94 30.38C92.9133 29.6067 92.7667 28.98 92.5 28.5C92.2467 28.0067 91.9 27.6533 91.46 27.44C91.02 27.2133 90.5133 27.1 89.94 27.1C89.38 27.1 88.88 27.2133 88.44 27.44C88 27.6533 87.6467 28.0067 87.38 28.5C87.1267 28.98 86.9867 29.6067 86.96 30.38C86.9467 30.9533 86.94 31.4933 86.94 32C86.94 32.4933 86.9467 33.0333 86.96 33.62C87 34.78 87.2933 35.62 87.84 36.14C88.3867 36.6467 89.0867 36.9 89.94 36.9ZM102.926 39.2C101.82 39.2 100.9 39.0067 100.166 38.62C99.4463 38.22 98.9063 37.64 98.5463 36.88C98.1863 36.12 97.9796 35.1933 97.9263 34.1C97.9263 33.7133 97.9263 33.3133 97.9263 32.9C97.9263 32.4867 97.9263 32.0867 97.9263 31.7C97.9529 30.5267 98.0663 29.5533 98.2663 28.78C98.4796 27.9933 98.7929 27.3467 99.2063 26.84C99.6196 26.32 100.153 25.8933 100.806 25.56C101.46 25.2133 102.233 24.9133 103.126 24.66C104.02 24.4067 105.053 24.14 106.226 23.86C106.36 23.8333 106.48 23.8533 106.586 23.92C106.706 23.9867 106.773 24.0933 106.786 24.24L107.046 25.56C107.073 25.6933 107.053 25.8133 106.986 25.92C106.92 26.0133 106.826 26.0733 106.706 26.1C105.693 26.3267 104.82 26.5333 104.086 26.72C103.353 26.8933 102.746 27.0933 102.266 27.32C101.786 27.5467 101.406 27.8467 101.126 28.22C100.86 28.58 100.673 29.0533 100.566 29.64C100.46 30.2267 100.426 30.98 100.466 31.9L100.006 31.52C100.086 31.1067 100.293 30.7267 100.626 30.38C100.96 30.0333 101.366 29.76 101.846 29.56C102.34 29.3467 102.86 29.24 103.406 29.24C104.366 29.24 105.173 29.42 105.826 29.78C106.48 30.14 106.98 30.6467 107.326 31.3C107.686 31.94 107.886 32.6933 107.926 33.56C107.953 34.04 107.953 34.48 107.926 34.88C107.886 35.7333 107.673 36.4867 107.286 37.14C106.9 37.7933 106.346 38.3 105.626 38.66C104.906 39.02 104.006 39.2 102.926 39.2ZM102.926 37.36C103.646 37.36 104.2 37.14 104.586 36.7C104.973 36.26 105.18 35.62 105.206 34.78C105.22 34.6333 105.226 34.46 105.226 34.26C105.226 34.0467 105.22 33.8467 105.206 33.66C105.18 32.82 104.973 32.18 104.586 31.74C104.213 31.3 103.713 31.08 103.086 31.08C102.366 31.08 101.786 31.3 101.346 31.74C100.92 32.18 100.693 32.82 100.666 33.66C100.653 33.8467 100.646 34.0467 100.646 34.26C100.646 34.46 100.653 34.6333 100.666 34.78C100.693 35.62 100.9 36.26 101.286 36.7C101.673 37.14 102.22 37.36 102.926 37.36ZM110.66 42.8C110.527 42.8 110.413 42.7533 110.32 42.66C110.227 42.5667 110.18 42.4533 110.18 42.32V29.08C110.18 28.9467 110.227 28.8333 110.32 28.74C110.413 28.6467 110.527 28.6 110.66 28.6H112.24C112.387 28.6 112.5 28.6467 112.58 28.74C112.673 28.8333 112.72 28.9467 112.72 29.08V29.88C113.04 29.4533 113.46 29.1 113.98 28.82C114.5 28.54 115.147 28.4 115.92 28.4C116.627 28.4 117.24 28.5133 117.76 28.74C118.28 28.9667 118.713 29.2933 119.06 29.72C119.407 30.1333 119.673 30.6267 119.86 31.2C120.047 31.7733 120.153 32.4067 120.18 33.1C120.193 33.3267 120.2 33.56 120.2 33.8C120.2 34.04 120.193 34.28 120.18 34.52C120.167 35.1867 120.067 35.8067 119.88 36.38C119.693 36.94 119.42 37.4333 119.06 37.86C118.713 38.2733 118.28 38.6 117.76 38.84C117.24 39.08 116.627 39.2 115.92 39.2C115.2 39.2 114.587 39.0733 114.08 38.82C113.573 38.5533 113.16 38.2067 112.84 37.78V42.32C112.84 42.4533 112.793 42.5667 112.7 42.66C112.62 42.7533 112.507 42.8 112.36 42.8H110.66ZM115.18 37.06C115.753 37.06 116.2 36.94 116.52 36.7C116.84 36.4467 117.067 36.12 117.2 35.72C117.347 35.32 117.433 34.88 117.46 34.4C117.487 34 117.487 33.6 117.46 33.2C117.433 32.72 117.347 32.28 117.2 31.88C117.067 31.48 116.84 31.16 116.52 30.92C116.2 30.6667 115.753 30.54 115.18 30.54C114.633 30.54 114.187 30.6667 113.84 30.92C113.507 31.1733 113.26 31.5 113.1 31.9C112.953 32.2867 112.867 32.6867 112.84 33.1C112.827 33.34 112.82 33.5933 112.82 33.86C112.82 34.1267 112.827 34.3867 112.84 34.64C112.853 35.04 112.947 35.4267 113.12 35.8C113.293 36.16 113.547 36.46 113.88 36.7C114.213 36.94 114.647 37.06 115.18 37.06ZM125.465 39.2C124.772 39.2 124.145 39.0667 123.585 38.8C123.025 38.52 122.578 38.1533 122.245 37.7C121.925 37.2333 121.765 36.7133 121.765 36.14C121.765 35.2067 122.138 34.4667 122.885 33.92C123.645 33.36 124.645 32.9867 125.885 32.8L128.625 32.4V31.98C128.625 31.42 128.485 30.9867 128.205 30.68C127.925 30.3733 127.445 30.22 126.765 30.22C126.285 30.22 125.892 30.32 125.585 30.52C125.292 30.7067 125.072 30.96 124.925 31.28C124.818 31.4533 124.665 31.54 124.465 31.54H122.885C122.738 31.54 122.625 31.5 122.545 31.42C122.478 31.34 122.445 31.2333 122.445 31.1C122.458 30.8867 122.545 30.6267 122.705 30.32C122.865 30.0133 123.118 29.72 123.465 29.44C123.812 29.1467 124.258 28.9 124.805 28.7C125.352 28.5 126.012 28.4 126.785 28.4C127.625 28.4 128.332 28.5067 128.905 28.72C129.492 28.92 129.958 29.1933 130.305 29.54C130.652 29.8867 130.905 30.2933 131.065 30.76C131.225 31.2267 131.305 31.72 131.305 32.24V38.52C131.305 38.6533 131.258 38.7667 131.165 38.86C131.072 38.9533 130.958 39 130.825 39H129.205C129.058 39 128.938 38.9533 128.845 38.86C128.765 38.7667 128.725 38.6533 128.725 38.52V37.74C128.552 37.9933 128.318 38.2333 128.025 38.46C127.732 38.6733 127.372 38.8533 126.945 39C126.532 39.1333 126.038 39.2 125.465 39.2ZM126.145 37.3C126.612 37.3 127.032 37.2 127.405 37C127.792 36.8 128.092 36.4933 128.305 36.08C128.532 35.6533 128.645 35.12 128.645 34.48V34.06L126.645 34.38C125.858 34.5 125.272 34.6933 124.885 34.96C124.498 35.2267 124.305 35.5533 124.305 35.94C124.305 36.2333 124.392 36.4867 124.565 36.7C124.752 36.9 124.985 37.0533 125.265 37.16C125.545 37.2533 125.838 37.3 126.145 37.3ZM137.871 39.2C137.017 39.2 136.297 39.1 135.711 38.9C135.137 38.7 134.677 38.4467 134.331 38.14C133.997 37.8333 133.751 37.5133 133.591 37.18C133.444 36.8333 133.357 36.52 133.331 36.24C133.331 36.12 133.371 36.0267 133.451 35.96C133.531 35.8933 133.617 35.86 133.711 35.86H135.351C135.484 35.86 135.584 35.8867 135.651 35.94C135.731 35.9933 135.797 36.08 135.851 36.2C135.984 36.6 136.231 36.88 136.591 37.04C136.964 37.2 137.424 37.28 137.971 37.28C138.344 37.28 138.677 37.2333 138.971 37.14C139.264 37.0333 139.491 36.88 139.651 36.68C139.811 36.4667 139.891 36.2067 139.891 35.9C139.891 35.46 139.764 35.1267 139.511 34.9C139.257 34.66 138.844 34.54 138.271 34.54H137.171C137.037 34.54 136.931 34.5 136.851 34.42C136.771 34.34 136.731 34.2333 136.731 34.1V33.26C136.731 33.14 136.771 33.04 136.851 32.96C136.931 32.8667 137.037 32.82 137.171 32.82H138.191C138.671 32.82 139.031 32.7333 139.271 32.56C139.511 32.3733 139.631 32.0867 139.631 31.7C139.631 31.4733 139.571 31.26 139.451 31.06C139.344 30.8467 139.164 30.6733 138.911 30.54C138.657 30.4067 138.304 30.34 137.851 30.34C137.224 30.34 136.777 30.44 136.511 30.64C136.244 30.84 136.051 31.14 135.931 31.54C135.877 31.66 135.811 31.7467 135.731 31.8C135.664 31.8533 135.557 31.88 135.411 31.88H133.831C133.724 31.88 133.631 31.8467 133.551 31.78C133.484 31.7133 133.451 31.62 133.451 31.5C133.477 31.14 133.571 30.78 133.731 30.42C133.904 30.0467 134.164 29.7067 134.511 29.4C134.871 29.0933 135.324 28.8533 135.871 28.68C136.417 28.4933 137.084 28.4 137.871 28.4C138.937 28.4 139.784 28.5467 140.411 28.84C141.037 29.1333 141.484 29.5067 141.751 29.96C142.031 30.4 142.171 30.86 142.171 31.34C142.171 31.8333 142.077 32.26 141.891 32.62C141.717 32.98 141.391 33.2733 140.911 33.5C141.511 33.7267 141.924 34.0733 142.151 34.54C142.377 35.0067 142.497 35.52 142.511 36.08C142.511 36.7467 142.317 37.3133 141.931 37.78C141.544 38.2333 141.004 38.5867 140.311 38.84C139.617 39.08 138.804 39.2 137.871 39.2ZM149.174 39.2C148.107 39.2 147.207 39.0133 146.474 38.64C145.754 38.2667 145.201 37.74 144.814 37.06C144.441 36.38 144.227 35.5867 144.174 34.68C144.161 34.44 144.154 34.1467 144.154 33.8C144.154 33.4533 144.161 33.16 144.174 32.92C144.227 32 144.447 31.2067 144.834 30.54C145.234 29.86 145.794 29.3333 146.514 28.96C147.247 28.5867 148.134 28.4 149.174 28.4C150.214 28.4 151.094 28.5867 151.814 28.96C152.547 29.3333 153.107 29.86 153.494 30.54C153.894 31.2067 154.121 32 154.174 32.92C154.187 33.16 154.194 33.4533 154.194 33.8C154.194 34.1467 154.187 34.44 154.174 34.68C154.121 35.5867 153.901 36.38 153.514 37.06C153.141 37.74 152.587 38.2667 151.854 38.64C151.134 39.0133 150.241 39.2 149.174 39.2ZM149.174 37.22C149.881 37.22 150.427 37 150.814 36.56C151.201 36.1067 151.414 35.4467 151.454 34.58C151.467 34.38 151.474 34.12 151.474 33.8C151.474 33.48 151.467 33.22 151.454 33.02C151.414 32.1667 151.201 31.5133 150.814 31.06C150.427 30.6067 149.881 30.38 149.174 30.38C148.467 30.38 147.921 30.6067 147.534 31.06C147.147 31.5133 146.934 32.1667 146.894 33.02C146.881 33.22 146.874 33.48 146.874 33.8C146.874 34.12 146.881 34.38 146.894 34.58C146.934 35.4467 147.147 36.1067 147.534 36.56C147.921 37 148.467 37.22 149.174 37.22ZM156.89 39C156.757 39 156.643 38.9533 156.55 38.86C156.457 38.7667 156.41 38.6533 156.41 38.52V29.08C156.41 28.9467 156.457 28.8333 156.55 28.74C156.643 28.6467 156.757 28.6 156.89 28.6H161.33C162.743 28.6 163.79 28.86 164.47 29.38C165.15 29.9 165.49 30.6 165.49 31.48C165.49 32.04 165.383 32.4733 165.17 32.78C164.957 33.0867 164.663 33.3533 164.29 33.58C164.757 33.7933 165.117 34.12 165.37 34.56C165.637 34.9867 165.77 35.46 165.77 35.98C165.77 36.94 165.41 37.6867 164.69 38.22C163.983 38.74 162.937 39 161.55 39H156.89ZM158.97 37.2H161.37C161.903 37.2 162.33 37.1 162.65 36.9C162.97 36.7 163.13 36.3867 163.13 35.96C163.13 35.52 162.983 35.2 162.69 35C162.397 34.8 161.957 34.7 161.37 34.7H158.97V37.2ZM158.97 32.84H161.29C161.823 32.84 162.243 32.7333 162.55 32.52C162.857 32.2933 163.01 31.9667 163.01 31.54C163.01 31.1133 162.85 30.82 162.53 30.66C162.223 30.4867 161.81 30.4 161.29 30.4H158.97V32.84ZM171.09 39.2C170.397 39.2 169.77 39.0667 169.21 38.8C168.65 38.52 168.203 38.1533 167.87 37.7C167.55 37.2333 167.39 36.7133 167.39 36.14C167.39 35.2067 167.763 34.4667 168.51 33.92C169.27 33.36 170.27 32.9867 171.51 32.8L174.25 32.4V31.98C174.25 31.42 174.11 30.9867 173.83 30.68C173.55 30.3733 173.07 30.22 172.39 30.22C171.91 30.22 171.517 30.32 171.21 30.52C170.917 30.7067 170.697 30.96 170.55 31.28C170.443 31.4533 170.29 31.54 170.09 31.54H168.51C168.363 31.54 168.25 31.5 168.17 31.42C168.103 31.34 168.07 31.2333 168.07 31.1C168.083 30.8867 168.17 30.6267 168.33 30.32C168.49 30.0133 168.743 29.72 169.09 29.44C169.437 29.1467 169.883 28.9 170.43 28.7C170.977 28.5 171.637 28.4 172.41 28.4C173.25 28.4 173.957 28.5067 174.53 28.72C175.117 28.92 175.583 29.1933 175.93 29.54C176.277 29.8867 176.53 30.2933 176.69 30.76C176.85 31.2267 176.93 31.72 176.93 32.24V38.52C176.93 38.6533 176.883 38.7667 176.79 38.86C176.697 38.9533 176.583 39 176.45 39H174.83C174.683 39 174.563 38.9533 174.47 38.86C174.39 38.7667 174.35 38.6533 174.35 38.52V37.74C174.177 37.9933 173.943 38.2333 173.65 38.46C173.357 38.6733 172.997 38.8533 172.57 39C172.157 39.1333 171.663 39.2 171.09 39.2ZM171.77 37.3C172.237 37.3 172.657 37.2 173.03 37C173.417 36.8 173.717 36.4933 173.93 36.08C174.157 35.6533 174.27 35.12 174.27 34.48V34.06L172.27 34.38C171.483 34.5 170.897 34.6933 170.51 34.96C170.123 35.2267 169.93 35.5533 169.93 35.94C169.93 36.2333 170.017 36.4867 170.19 36.7C170.377 36.9 170.61 37.0533 170.89 37.16C171.17 37.2533 171.463 37.3 171.77 37.3ZM179.976 39C179.842 39 179.729 38.9533 179.636 38.86C179.542 38.7667 179.496 38.6533 179.496 38.52V29.08C179.496 28.9467 179.542 28.8333 179.636 28.74C179.729 28.6467 179.842 28.6 179.976 28.6H181.636C181.782 28.6 181.896 28.6467 181.976 28.74C182.069 28.8333 182.116 28.9467 182.116 29.08V32.66H186.636V29.08C186.636 28.9467 186.682 28.8333 186.776 28.74C186.869 28.6467 186.982 28.6 187.116 28.6H188.776C188.909 28.6 189.022 28.6467 189.116 28.74C189.209 28.8333 189.256 28.9467 189.256 29.08V38.52C189.256 38.6533 189.209 38.7667 189.116 38.86C189.022 38.9533 188.909 39 188.776 39H187.116C186.982 39 186.869 38.9533 186.776 38.86C186.682 38.7667 186.636 38.6533 186.636 38.52V34.76H182.116V38.52C182.116 38.6533 182.069 38.7667 181.976 38.86C181.896 38.9533 181.782 39 181.636 39H179.976ZM192.417 39C192.297 39 192.19 38.9533 192.097 38.86C192.003 38.7667 191.957 38.66 191.957 38.54V29.08C191.957 28.9467 192.003 28.8333 192.097 28.74C192.19 28.6467 192.303 28.6 192.437 28.6H194.097C194.243 28.6 194.357 28.6467 194.437 28.74C194.53 28.8333 194.577 28.9467 194.577 29.08V36.98L193.877 36.48L199.377 28.92C199.443 28.8267 199.517 28.7533 199.597 28.7C199.677 28.6333 199.783 28.6 199.917 28.6H201.437C201.557 28.6 201.663 28.6467 201.757 28.74C201.85 28.82 201.897 28.92 201.897 29.04V38.52C201.897 38.6533 201.85 38.7667 201.757 38.86C201.663 38.9533 201.55 39 201.417 39H199.757C199.61 39 199.49 38.9533 199.397 38.86C199.317 38.7667 199.277 38.6533 199.277 38.52V30.98L200.017 31.08L194.477 38.68C194.423 38.76 194.35 38.8333 194.257 38.9C194.177 38.9667 194.07 39 193.937 39H192.417ZM208.898 39.2C207.418 39.2 206.244 38.7733 205.378 37.92C204.511 37.0667 204.044 35.8533 203.978 34.28C203.964 34.1467 203.958 33.98 203.958 33.78C203.958 33.5667 203.964 33.4 203.978 33.28C204.031 32.28 204.258 31.4133 204.658 30.68C205.071 29.9467 205.638 29.3867 206.358 29C207.078 28.6 207.924 28.4 208.898 28.4C209.978 28.4 210.884 28.6267 211.618 29.08C212.351 29.52 212.904 30.14 213.278 30.94C213.651 31.7267 213.838 32.64 213.838 33.68V34.1C213.838 34.2333 213.791 34.3467 213.698 34.44C213.604 34.5333 213.484 34.58 213.338 34.58H206.698C206.698 34.58 206.698 34.6 206.698 34.64C206.698 34.68 206.698 34.7133 206.698 34.74C206.711 35.2067 206.798 35.64 206.958 36.04C207.131 36.4267 207.378 36.74 207.698 36.98C208.031 37.22 208.424 37.34 208.878 37.34C209.251 37.34 209.564 37.2867 209.818 37.18C210.071 37.06 210.278 36.9267 210.438 36.78C210.598 36.6333 210.711 36.5133 210.778 36.42C210.898 36.26 210.991 36.1667 211.058 36.14C211.138 36.1 211.251 36.08 211.398 36.08H213.118C213.251 36.08 213.358 36.12 213.438 36.2C213.531 36.28 213.571 36.38 213.558 36.5C213.544 36.7133 213.431 36.9733 213.218 37.28C213.018 37.5867 212.724 37.8867 212.338 38.18C211.951 38.4733 211.464 38.72 210.878 38.92C210.304 39.1067 209.644 39.2 208.898 39.2ZM206.698 32.9H211.118V32.84C211.118 32.32 211.031 31.8667 210.858 31.48C210.684 31.0933 210.431 30.7867 210.098 30.56C209.764 30.3333 209.364 30.22 208.898 30.22C208.431 30.22 208.031 30.3333 207.698 30.56C207.364 30.7867 207.111 31.0933 206.938 31.48C206.778 31.8667 206.698 32.32 206.698 32.84V32.9Z" fill="#2F2A1F"/>
</svg>
