<svg width="83" height="32" viewBox="0 0 83 32" fill="none" xmlns="http://www.w3.org/2000/svg">
<g clip-path="url(#clip0_241_790)">
<path d="M38.5623 18.733L38.5295 10.4934L34.7221 17.2869H31.6035L27.9276 10.3247V18.733H21.2646V0.336426H29.1092L33.3763 8.91243L38.2013 0.336426H45.1597L45.2253 18.733H38.5623Z" fill="#F0A526"/>
<path d="M54.9727 19.0694C52.9816 19.0694 51.1875 18.6659 49.5901 17.8586C48.0143 17.0292 46.7783 15.8966 45.881 14.4618C44.9838 13.0045 44.5352 11.3565 44.5352 9.51784C44.5352 7.67913 44.9838 6.04238 45.881 4.60757C46.7783 3.15027 48.0143 2.01773 49.5901 1.21081C51.1875 0.403459 52.9816 0 54.9727 0C56.986 0 58.7801 0.403459 60.3558 1.21081C61.9528 2.01773 63.1893 3.15027 64.0644 4.60757C64.9617 6.04281 65.4103 7.67957 65.4103 9.51784C65.4103 11.3565 64.9617 13.0045 64.0644 14.4618C63.1893 15.8966 61.9528 17.0292 60.3558 17.8586C58.7801 18.6659 56.986 19.0694 54.9727 19.0694ZM54.9727 13.1503C55.8261 13.1503 56.5263 12.8363 57.0733 12.2084C57.6206 11.5581 57.8939 10.6612 57.8939 9.51784C57.8939 8.37449 57.6206 7.48886 57.0733 6.86097C56.5263 6.23308 55.8261 5.91913 54.9727 5.91913C54.1193 5.91913 53.4191 6.23308 52.8722 6.86097C52.3252 7.48886 52.0516 8.37449 52.0516 9.51784C52.0516 10.6612 52.3252 11.5581 52.8722 12.2084C53.4191 12.8363 54.1193 13.1503 54.9727 13.1503Z" fill="#F0A526"/>
<path d="M74.171 19.0694C72.136 19.0694 70.3088 18.6659 68.6896 17.8586C67.0922 17.0517 65.834 15.9191 64.915 14.4618C64.0178 13.0045 63.5696 11.3565 63.5696 9.51784C63.5696 7.67913 64.0178 6.04238 64.915 4.60757C65.834 3.15027 67.0922 2.01773 68.6896 1.21081C70.3088 0.403459 72.136 0 74.171 0C76.3592 0 78.2299 0.482162 79.7835 1.44605C81.3371 2.41038 82.4093 3.74443 83.0001 5.44822L77.2561 8.34076C76.5559 6.72649 75.5165 5.91913 74.1382 5.91913C73.2627 5.91913 72.5297 6.23308 71.939 6.86097C71.3703 7.48886 71.0855 8.37449 71.0855 9.51784C71.0855 10.6837 71.3703 11.5805 71.939 12.2084C72.5297 12.8363 73.2627 13.1503 74.1382 13.1503C75.5165 13.1503 76.5559 12.3429 77.2561 10.7286L83.0001 13.6212C82.4093 15.325 81.3371 16.659 79.7835 17.6234C78.2299 18.5877 76.3592 19.0694 74.171 19.0694Z" fill="#F0A526"/>
<path d="M8.42344 23.1413C9.5101 23.5573 10.0536 24.3339 10.0536 25.4712C10.0536 26.3888 9.69738 27.1101 8.98486 27.6364C8.27233 28.1501 7.22738 28.407 5.85086 28.407H0V18.3711H5.561C6.88943 18.3711 7.92203 18.6037 8.65882 19.0682C9.39517 19.5209 9.76378 20.1631 9.76378 20.9947C9.76378 21.4595 9.64886 21.8755 9.41944 22.2422C9.19002 22.6094 8.85759 22.909 8.42344 23.1417V23.1413ZM3.58603 22.3339H5.19835C5.79 22.3339 6.08582 22.0956 6.08582 21.6187C6.08582 21.386 6.01346 21.2148 5.86874 21.1049C5.73594 20.9947 5.51248 20.9397 5.19835 20.9397H3.58645V22.3339H3.58603ZM5.48822 25.8383C6.07986 25.8383 6.37568 25.5875 6.37568 25.0859C6.37568 24.6089 6.07986 24.3707 5.48822 24.3707H3.58645V25.8383H5.48864H5.48822Z" fill="#2F2A1F"/>
<path d="M14.8706 28.5901C13.7715 28.5901 12.7815 28.3696 11.8996 27.9298C11.0304 27.477 10.3481 26.8595 9.85267 26.0768C9.35765 25.2816 9.11035 24.3825 9.11035 23.3797C9.11035 22.3765 9.35765 21.4839 9.85267 20.7008C10.3481 19.906 11.0304 19.288 11.9 18.8478C12.7811 18.4076 13.7715 18.1875 14.8706 18.1875C15.9815 18.1875 16.9719 18.4076 17.8415 18.8478C18.7226 19.2885 19.4053 19.906 19.888 20.7008C20.3835 21.4835 20.6308 22.3765 20.6308 23.3797C20.6308 24.383 20.3835 25.2816 19.888 26.0764C19.4053 26.8591 18.723 27.4774 17.8411 27.9298C16.9719 28.37 15.9815 28.5901 14.8701 28.5901H14.8706ZM14.8706 25.3611C15.3413 25.3611 15.7278 25.1899 16.03 24.8474C16.3318 24.4928 16.4829 24.0033 16.4829 23.3797C16.4829 22.7557 16.3318 22.2727 16.03 21.9302C15.7278 21.5877 15.3413 21.4165 14.8706 21.4165C14.3994 21.4165 14.0133 21.5877 13.7111 21.9302C13.4089 22.2727 13.2582 22.7562 13.2582 23.3797C13.2582 24.0033 13.4093 24.4928 13.7111 24.8474C14.0133 25.1899 14.3994 25.3611 14.8706 25.3611V25.3611Z" fill="#2F2A1F"/>
<path d="M30.742 18.371V28.4069H26.6482V21.6H24.7826L24.7281 22.9025C24.68 24.1989 24.5468 25.2631 24.3297 26.0947C24.1122 26.9263 23.75 27.5684 23.2426 28.0212C22.7476 28.4614 22.0653 28.6815 21.1957 28.6815C20.6526 28.6815 20.0184 28.5898 19.2939 28.4065L19.457 25.0491C19.6502 25.0733 19.789 25.0854 19.8732 25.0854C20.3687 25.0854 20.6947 24.9081 20.8518 24.5535C21.0089 24.1864 21.105 23.581 21.1412 22.7373L21.2864 18.3706H30.742V18.371Z" fill="#2F2A1F"/>
<path d="M36.1454 28.5901C35.0464 28.5901 34.0559 28.3696 33.1744 27.9298C32.3048 27.477 31.6225 26.8595 31.1275 26.0768C30.6325 25.2816 30.3848 24.3825 30.3848 23.3797C30.3848 22.3765 30.6325 21.4839 31.1275 20.7008C31.6225 19.906 32.3048 19.288 33.1748 18.8478C34.0559 18.4076 35.0464 18.1875 36.1454 18.1875C37.2563 18.1875 38.2464 18.4076 39.1164 18.8478C39.9974 19.2885 40.6797 19.906 41.1628 20.7008C41.6579 21.4835 41.9056 22.3765 41.9056 23.3797C41.9056 24.383 41.6579 25.2816 41.1628 26.0764C40.6797 26.8591 39.9974 27.4774 39.1159 27.9298C38.2464 28.37 37.2559 28.5901 36.145 28.5901H36.1454ZM36.1454 25.3611C36.6161 25.3611 37.0026 25.1899 37.3044 24.8474C37.6066 24.4928 37.7573 24.0033 37.7573 23.3797C37.7573 22.7557 37.6066 22.2727 37.3044 21.9302C37.0026 21.5877 36.6161 21.4165 36.1454 21.4165C35.6742 21.4165 35.2877 21.5877 34.9859 21.9302C34.6837 22.2727 34.5331 22.7562 34.5331 23.3797C34.5331 24.0033 34.6842 24.4928 34.9859 24.8474C35.2881 25.1899 35.6742 25.3611 36.1454 25.3611Z" fill="#2F2A1F"/>
<path d="M41.5422 18.3711H45.6178V21.8937H48.4074V18.3711H52.4829V28.407H48.4074V25.1413H45.6178V28.407H41.5422V18.3711Z" fill="#2F2A1F"/>
<path d="M62.1555 21.6001H59.1301V28.4066H55.0546V21.6001H52.0295V18.3711H62.1555V21.6001Z" fill="#2F2A1F"/>
<path d="M71.7652 23.3797C71.7652 23.4407 71.7469 23.7646 71.7107 24.3518H64.8273C64.9633 24.7205 65.2188 25.0311 65.5517 25.2327C65.8901 25.4282 66.3127 25.5263 66.8197 25.5263C67.2547 25.5263 67.6169 25.471 67.9068 25.3611C68.2086 25.2509 68.5346 25.0614 68.8849 24.7925L71.0225 26.9754C70.0563 28.0522 68.6129 28.5901 66.6928 28.5901C65.4976 28.5901 64.4467 28.3696 63.541 27.9298C62.6352 27.477 61.935 26.853 61.44 26.0582C60.9446 25.2634 60.6973 24.3704 60.6973 23.3797C60.6973 22.3765 60.9386 21.4839 61.4217 20.7008C61.9167 19.906 62.5871 19.288 63.4324 18.8478C64.2897 18.4076 65.2499 18.1875 66.3128 18.1875C67.3151 18.1875 68.2269 18.3894 69.0479 18.7929C69.8813 19.1964 70.5394 19.7897 71.0225 20.5724C71.5175 21.3551 71.7652 22.2909 71.7652 23.3797V23.3797ZM66.3489 21.013C65.9263 21.013 65.576 21.1289 65.298 21.3616C65.0205 21.5938 64.8392 21.9237 64.7549 22.3518H67.943C67.8582 21.9367 67.6774 21.6124 67.3994 21.3797C67.1219 21.135 66.7716 21.013 66.3489 21.013V21.013Z" fill="#2F2A1F"/>
<path d="M78.2184 18.1875C79.0875 18.1875 79.8847 18.4016 80.6092 18.8297C81.346 19.2457 81.9257 19.8511 82.3483 20.6459C82.7829 21.4411 83.0004 22.3583 83.0004 23.3979C83.0004 24.4374 82.7829 25.3551 82.3483 26.1499C81.9257 26.9326 81.346 27.538 80.6092 27.9661C79.8847 28.3821 79.0875 28.5901 78.2184 28.5901C77.1193 28.5901 76.28 28.3025 75.7003 27.7278V31.9657H71.6064V18.3713H75.5011V19.1972C76.0927 18.5244 76.9985 18.1879 78.2184 18.1879V18.1875ZM77.2402 25.3611C77.711 25.3611 78.0975 25.1899 78.3993 24.8474C78.7015 24.5049 78.8521 24.0214 78.8521 23.3979C78.8521 22.7743 78.7015 22.2909 78.3993 21.9484C78.0975 21.5938 77.711 21.4165 77.2402 21.4165C76.769 21.4165 76.3826 21.5938 76.0808 21.9484C75.779 22.2909 75.6279 22.7743 75.6279 23.3979C75.6279 24.0219 75.779 24.5049 76.0808 24.8474C76.3826 25.1899 76.769 25.3611 77.2402 25.3611Z" fill="#2F2A1F"/>
</g>
<defs>
<clipPath id="clip0_241_790">
<rect width="83" height="32" fill="white"/>
</clipPath>
</defs>
</svg>
