<svg width="24" height="24" viewBox="0 0 24 24" fill="none" xmlns="http://www.w3.org/2000/svg">
<path d="M19.0002 9C19.0002 10.45 18.5702 11.78 17.8302 12.89C16.7502 14.49 15.0402 15.62 13.0502 15.91C12.7102 15.97 12.3602 16 12.0002 16C11.6402 16 11.2902 15.97 10.9502 15.91C8.96024 15.62 7.25024 14.49 6.17024 12.89C5.43024 11.78 5.00024 10.45 5.00024 9C5.00024 5.13 8.13024 2 12.0002 2C15.8702 2 19.0002 5.13 19.0002 9Z" stroke="#A58C50" stroke-width="1.5" stroke-linecap="round" stroke-linejoin="round"/>
<path d="M21.2503 18.4699L19.6003 18.8599C19.2303 18.9499 18.9403 19.2299 18.8603 19.5999L18.5103 21.0699C18.3203 21.8699 17.3003 22.1099 16.7703 21.4799L12.0003 15.9999L7.23032 21.4899C6.70032 22.1199 5.68032 21.8799 5.49032 21.0799L5.14032 19.6099C5.05032 19.2399 4.76032 18.9499 4.40032 18.8699L2.75032 18.4799C1.99032 18.2999 1.72032 17.3499 2.27032 16.7999L6.17032 12.8999C7.25032 14.4999 8.96032 15.6299 10.9503 15.9199C11.2903 15.9799 11.6403 16.0099 12.0003 16.0099C12.3603 16.0099 12.7103 15.9799 13.0503 15.9199C15.0403 15.6299 16.7503 14.4999 17.8303 12.8999L21.7303 16.7999C22.2803 17.3399 22.0103 18.2899 21.2503 18.4699Z" stroke="#A58C50" stroke-width="1.5" stroke-linecap="round" stroke-linejoin="round"/>
<path d="M12.5802 5.98L13.1702 7.15999C13.2502 7.31999 13.4602 7.48 13.6502 7.51L14.7202 7.68999C15.4002 7.79999 15.5602 8.3 15.0702 8.79L14.2402 9.61998C14.1002 9.75998 14.0202 10.03 14.0702 10.23L14.3102 11.26C14.5002 12.07 14.0702 12.39 13.3502 11.96L12.3502 11.37C12.1702 11.26 11.8702 11.26 11.6902 11.37L10.6902 11.96C9.97022 12.38 9.54022 12.07 9.73022 11.26L9.97022 10.23C10.0102 10.04 9.94022 9.75998 9.80022 9.61998L8.97022 8.79C8.48022 8.3 8.64022 7.80999 9.32022 7.68999L10.3902 7.51C10.5702 7.48 10.7802 7.31999 10.8602 7.15999L11.4502 5.98C11.7402 5.34 12.2602 5.34 12.5802 5.98Z" stroke="#A58C50" stroke-width="1.5" stroke-linecap="round" stroke-linejoin="round"/>
</svg>
