<svg width="32" height="32" viewBox="0 0 32 32" fill="none" xmlns="http://www.w3.org/2000/svg">
<path d="M22.5332 29.3332H9.46659C7.19993 29.3332 5.33325 27.4798 5.33325 25.1998V6.79985C5.33325 4.53318 7.18659 2.6665 9.46659 2.6665H22.5332C24.7999 2.6665 26.6666 4.51985 26.6666 6.79985V25.1998C26.6666 27.4798 24.8132 29.3332 22.5332 29.3332Z" stroke="#BD4A5F" stroke-width="2" stroke-linecap="round" stroke-linejoin="round"/>
<path d="M24.6666 17.3332H7.33325C6.22659 17.3332 5.33325 16.4398 5.33325 15.3332V12.6665C5.33325 11.5598 6.22659 10.6665 7.33325 10.6665H24.6666C25.7733 10.6665 26.6666 11.5598 26.6666 12.6665V15.3332C26.6666 16.4398 25.7733 17.3332 24.6666 17.3332Z" stroke="#BD4A5F" stroke-width="2" stroke-linecap="round" stroke-linejoin="round"/>
<path d="M11.3261 23.6003H11.3381" stroke="#BD4A5F" stroke-width="3.33333" stroke-linecap="round" stroke-linejoin="round"/>
<path d="M20.6593 23.6003H20.6713" stroke="#BD4A5F" stroke-width="3.33333" stroke-linecap="round" stroke-linejoin="round"/>
<path d="M12.6667 6.6665H19.3334" stroke="#BD4A5F" stroke-width="2" stroke-linecap="round" stroke-linejoin="round"/>
</svg>
