<svg width="34" height="34" viewBox="0 0 34 34" fill="none" xmlns="http://www.w3.org/2000/svg">
<path fill-rule="evenodd" clip-rule="evenodd" d="M7.42176 26.5397V26.5397C5.83793 24.9559 5.83793 22.3889 7.42176 20.8051L20.8036 7.42323C22.3874 5.83939 24.9544 5.83939 26.5383 7.42323V7.42323C28.1221 9.00706 28.1221 11.5741 26.5383 13.1579L13.1564 26.5397C11.5726 28.1236 9.0056 28.1236 7.42176 26.5397Z" stroke="#BD4A5F" stroke-width="2.125" stroke-linecap="round" stroke-linejoin="round"/>
<path d="M23.1145 10.3682L22.6527 10.83L22.6512 10.8314C22.2942 11.1884 22.018 11.6233 21.9047 12.0554V12.0554V12.0554C21.6794 12.9182 20.7968 13.7993 19.9355 14.0246V14.0246V14.0246C19.0727 14.2498 18.1916 15.1324 17.9663 15.9937V15.9937V15.9937C17.7411 16.8565 16.8585 17.7377 15.9972 17.9629V17.9629V17.9629C15.1344 18.1882 14.2532 19.0707 14.028 19.9321V19.9321V19.9321C13.8027 20.7948 12.9202 21.676 12.0588 21.9012V21.9012V21.9012V21.9012V21.9012C11.6282 22.0146 11.1918 22.2908 10.8348 22.6478L10.3716 23.1111" stroke="#BD4A5F" stroke-width="2.125" stroke-linecap="round" stroke-linejoin="round"/>
<path fill-rule="evenodd" clip-rule="evenodd" d="M13.712 29.0061V29.0061C12.8776 28.1717 12.8776 26.8187 13.712 25.9843L25.9846 13.7117C26.819 12.8773 28.1705 12.8773 29.0049 13.7117V13.7117C29.2684 13.9752 29.4568 14.3011 29.5546 14.6595L29.6056 14.8451C29.9881 16.249 29.59 17.7507 28.5601 18.7806L18.7794 28.5612C17.7509 29.5897 16.2492 29.9892 14.8453 29.6067L14.6583 29.5557C14.3013 29.458 13.9741 29.2682 13.712 29.0061V29.0061Z" stroke="#BD4A5F" stroke-width="2.125" stroke-linecap="round" stroke-linejoin="round"/>
<path fill-rule="evenodd" clip-rule="evenodd" d="M20.2497 4.95526V4.95526C21.0842 5.78968 21.0842 7.1426 20.2497 7.97701L7.97575 20.2496C7.14133 21.084 5.78841 21.084 4.954 20.2496V20.2496C4.6905 19.9861 4.50208 19.6603 4.40433 19.3018V19.3018C3.98925 17.7832 4.42133 16.1583 5.53483 15.0448L15.0421 5.53751C16.1556 4.42401 17.7805 3.99193 19.2992 4.40701V4.40701C19.659 4.50193 19.9862 4.69176 20.2497 4.95526Z" stroke="#BD4A5F" stroke-width="2.125" stroke-linecap="round" stroke-linejoin="round"/>
</svg>
