<svg width="83" height="32" viewBox="0 0 83 32" fill="none" xmlns="http://www.w3.org/2000/svg">
<g clip-path="url(#clip0_188_1092)">
<path d="M38.5626 18.733L38.5299 10.4934L34.7225 17.2869H31.6038L27.928 10.3247V18.733H21.265V0.336426H29.1096L33.3766 8.91243L38.2017 0.336426H45.1601L45.2256 18.733H38.5626Z" fill="#BD4A5F"/>
<path d="M54.9724 19.0694C52.9812 19.0694 51.1872 18.6659 49.5897 17.8586C48.014 17.0292 46.778 15.8966 45.8807 14.4618C44.9834 13.0045 44.5348 11.3565 44.5348 9.51784C44.5348 7.67913 44.9834 6.04238 45.8807 4.60757C46.778 3.15027 48.014 2.01773 49.5897 1.21081C51.1872 0.403459 52.9812 0 54.9724 0C56.9857 0 58.7797 0.403459 60.3555 1.21081C61.9525 2.01773 63.189 3.15027 64.0641 4.60757C64.9613 6.04281 65.41 7.67957 65.41 9.51784C65.41 11.3565 64.9613 13.0045 64.0641 14.4618C63.189 15.8966 61.9525 17.0292 60.3555 17.8586C58.7797 18.6659 56.9857 19.0694 54.9724 19.0694ZM54.9724 13.1503C55.8258 13.1503 56.526 12.8363 57.0729 12.2084C57.6203 11.5581 57.8936 10.6612 57.8936 9.51784C57.8936 8.37449 57.6203 7.48886 57.0729 6.86097C56.526 6.23308 55.8258 5.91913 54.9724 5.91913C54.119 5.91913 53.4188 6.23308 52.8719 6.86097C52.3249 7.48886 52.0512 8.37449 52.0512 9.51784C52.0512 10.6612 52.3249 11.5581 52.8719 12.2084C53.4188 12.8363 54.119 13.1503 54.9724 13.1503V13.1503Z" fill="#BD4A5F"/>
<path d="M74.1709 19.0694C72.1359 19.0694 70.3087 18.6659 68.6895 17.8586C67.0921 17.0517 65.8339 15.9191 64.9149 14.4618C64.0177 13.0045 63.5695 11.3565 63.5695 9.51784C63.5695 7.67913 64.0177 6.04238 64.9149 4.60757C65.8339 3.15027 67.0921 2.01773 68.6895 1.21081C70.3087 0.403459 72.1359 0 74.1709 0C76.3592 0 78.2298 0.482162 79.7834 1.44605C81.337 2.41038 82.4092 3.74443 83 5.44822L77.256 8.34076C76.5558 6.72649 75.5164 5.91913 74.1382 5.91913C73.2626 5.91913 72.5297 6.23308 71.9389 6.86097C71.3702 7.48886 71.0855 8.37449 71.0855 9.51784C71.0855 10.6837 71.3702 11.5805 71.9389 12.2084C72.5297 12.8363 73.2626 13.1503 74.1382 13.1503C75.5164 13.1503 76.5558 12.3429 77.256 10.7286L83 13.6212C82.4092 15.325 81.337 16.659 79.7834 17.6234C78.2298 18.5877 76.3592 19.0694 74.1709 19.0694Z" fill="#BD4A5F"/>
<path d="M8.42344 23.1413C9.5101 23.5573 10.0536 24.3339 10.0536 25.4712C10.0536 26.3888 9.69738 27.1101 8.98486 27.6364C8.27233 28.1501 7.22738 28.407 5.85086 28.407H0V18.3711H5.561C6.88943 18.3711 7.92203 18.6037 8.65882 19.0682C9.39517 19.5209 9.76378 20.1631 9.76378 20.9947C9.76378 21.4595 9.64886 21.8755 9.41944 22.2422C9.19002 22.6094 8.85759 22.909 8.42344 23.1417V23.1413ZM3.58603 22.3339H5.19835C5.79 22.3339 6.08582 22.0956 6.08582 21.6187C6.08582 21.386 6.01346 21.2148 5.86874 21.1049C5.73594 20.9947 5.51248 20.9397 5.19835 20.9397H3.58645V22.3339H3.58603ZM5.48822 25.8383C6.07986 25.8383 6.37568 25.5875 6.37568 25.0859C6.37568 24.6089 6.07986 24.3707 5.48822 24.3707H3.58645V25.8383H5.48864H5.48822Z" fill="#342729"/>
<path d="M14.8702 28.5901C13.7712 28.5901 12.7811 28.3696 11.8992 27.9298C11.0301 27.477 10.3477 26.8595 9.8523 26.0768C9.35728 25.2816 9.10999 24.3825 9.10999 23.3797C9.10999 22.3765 9.35728 21.4839 9.8523 20.7008C10.3477 19.906 11.0301 19.288 11.8996 18.8478C12.7807 18.4076 13.7712 18.1875 14.8702 18.1875C15.9811 18.1875 16.9716 18.4076 17.8412 18.8478C18.7222 19.2885 19.405 19.906 19.8876 20.7008C20.3831 21.4835 20.6304 22.3765 20.6304 23.3797C20.6304 24.383 20.3831 25.2816 19.8876 26.0764C19.405 26.8591 18.7227 27.4774 17.8407 27.9298C16.9716 28.37 15.9811 28.5901 14.8698 28.5901H14.8702ZM14.8702 25.3611C15.3409 25.3611 15.7274 25.1899 16.0296 24.8474C16.3314 24.4928 16.4825 24.0033 16.4825 23.3797C16.4825 22.7557 16.3314 22.2727 16.0296 21.9302C15.7274 21.5877 15.3409 21.4165 14.8702 21.4165C14.399 21.4165 14.0129 21.5877 13.7107 21.9302C13.4085 22.2727 13.2579 22.7562 13.2579 23.3797C13.2579 24.0033 13.409 24.4928 13.7107 24.8474C14.0129 25.1899 14.399 25.3611 14.8702 25.3611V25.3611Z" fill="#342729"/>
<path d="M30.7419 18.371V28.4069H26.6481V21.6H24.7825L24.728 22.9025C24.6799 24.1989 24.5467 25.2631 24.3296 26.0947C24.1121 26.9263 23.7499 27.5684 23.2426 28.0212C22.7475 28.4614 22.0652 28.6815 21.1956 28.6815C20.6525 28.6815 20.0183 28.5898 19.2939 28.4065L19.4569 25.0491C19.6501 25.0733 19.7889 25.0854 19.8732 25.0854C20.3686 25.0854 20.6947 24.9081 20.8517 24.5535C21.0088 24.1864 21.105 23.581 21.1412 22.7373L21.2863 18.3706H30.7419V18.371Z" fill="#342729"/>
<path d="M36.1455 28.5901C35.0464 28.5901 34.056 28.3696 33.1745 27.9298C32.3049 27.477 31.6226 26.8595 31.1276 26.0768C30.6325 25.2816 30.3848 24.3825 30.3848 23.3797C30.3848 22.3765 30.6325 21.4839 31.1276 20.7008C31.6226 19.906 32.3049 19.288 33.1749 18.8478C34.056 18.4076 35.0464 18.1875 36.1455 18.1875C37.2564 18.1875 38.2464 18.4076 39.1164 18.8478C39.9975 19.2885 40.6798 19.906 41.1629 20.7008C41.6579 21.4835 41.9057 22.3765 41.9057 23.3797C41.9057 24.383 41.6579 25.2816 41.1629 26.0764C40.6798 26.8591 39.9975 27.4774 39.116 27.9298C38.2464 28.37 37.2559 28.5901 36.145 28.5901H36.1455ZM36.1455 25.3611C36.6162 25.3611 37.0027 25.1899 37.3045 24.8474C37.6067 24.4928 37.7574 24.0033 37.7574 23.3797C37.7574 22.7557 37.6067 22.2727 37.3045 21.9302C37.0027 21.5877 36.6162 21.4165 36.1455 21.4165C35.6743 21.4165 35.2878 21.5877 34.986 21.9302C34.6838 22.2727 34.5331 22.7562 34.5331 23.3797C34.5331 24.0033 34.6842 24.4928 34.986 24.8474C35.2882 25.1899 35.6743 25.3611 36.1455 25.3611Z" fill="#342729"/>
<path d="M41.5421 18.3711H45.6177V21.8937H48.4073V18.3711H52.4828V28.407H48.4073V25.1413H45.6177V28.407H41.5421V18.3711Z" fill="#342729"/>
<path d="M62.1555 21.6001H59.1301V28.4066H55.0545V21.6001H52.0295V18.3711H62.1555V21.6001Z" fill="#342729"/>
<path d="M71.7648 23.3797C71.7648 23.4407 71.7465 23.7646 71.7103 24.3518H64.8268C64.9629 24.7205 65.2184 25.0311 65.5513 25.2327C65.8897 25.4282 66.3123 25.5263 66.8193 25.5263C67.2543 25.5263 67.6165 25.471 67.9063 25.3611C68.2081 25.2509 68.5342 25.0614 68.8845 24.7925L71.022 26.9754C70.0558 28.0522 68.6125 28.5901 66.6924 28.5901C65.4972 28.5901 64.4463 28.3696 63.5405 27.9298C62.6348 27.477 61.9346 26.853 61.4396 26.0582C60.9441 25.2634 60.6968 24.3704 60.6968 23.3797C60.6968 22.3765 60.9382 21.4839 61.4213 20.7008C61.9163 19.906 62.5867 19.288 63.432 18.8478C64.2892 18.4076 65.2495 18.1875 66.3123 18.1875C67.3147 18.1875 68.2264 18.3894 69.0475 18.7929C69.8809 19.1964 70.5389 19.7897 71.022 20.5724C71.5171 21.3551 71.7648 22.2909 71.7648 23.3797V23.3797ZM66.3485 21.013C65.9258 21.013 65.5755 21.1289 65.2976 21.3616C65.0201 21.5938 64.8388 21.9237 64.7545 22.3518H67.9425C67.8578 21.9367 67.6769 21.6124 67.399 21.3797C67.1215 21.135 66.7712 21.013 66.3485 21.013V21.013Z" fill="#342729"/>
<path d="M78.2179 18.1875C79.0871 18.1875 79.8843 18.4016 80.6088 18.8297C81.3455 19.2457 81.9253 19.8511 82.3479 20.6459C82.7825 21.4411 83 22.3583 83 23.3979C83 24.4374 82.7825 25.3551 82.3479 26.1499C81.9253 26.9326 81.3455 27.538 80.6088 27.9661C79.8843 28.3821 79.0871 28.5901 78.2179 28.5901C77.1189 28.5901 76.2796 28.3025 75.6998 27.7278V31.9657H71.606V18.3713H75.5006V19.1972C76.0923 18.5244 76.998 18.1879 78.2179 18.1879V18.1875ZM77.2398 25.3611C77.7106 25.3611 78.097 25.1899 78.3988 24.8474C78.701 24.5049 78.8517 24.0214 78.8517 23.3979C78.8517 22.7743 78.701 22.2909 78.3988 21.9484C78.097 21.5938 77.7106 21.4165 77.2398 21.4165C76.7686 21.4165 76.3821 21.5938 76.0804 21.9484C75.7786 22.2909 75.6275 22.7743 75.6275 23.3979C75.6275 24.0219 75.7786 24.5049 76.0804 24.8474C76.3821 25.1899 76.7686 25.3611 77.2398 25.3611Z" fill="#342729"/>
</g>
<defs>
<clipPath id="clip0_188_1092">
<rect width="83" height="32" fill="white"/>
</clipPath>
</defs>
</svg>
