<?xml version="1.0" encoding="utf-8"?><svg viewBox="0 0 83 32" xmlns="http://www.w3.org/2000/svg" xmlns:xlink="http://www.w3.org/1999/xlink"><style>:root>svg{display:none}:root>svg:target{display:block}</style><svg viewBox="0 0 83 32" id="logo" xmlns="http://www.w3.org/2000/svg"><g clip-path="url(#aa)"><path d="M38.563 18.733l-.033-8.24-3.808 6.794h-3.118l-3.676-6.962v8.408h-6.663V.336h7.845l4.267 8.576L38.202.336h6.958l.066 18.397h-6.663z"/><path d="M54.972 19.07c-1.99 0-3.785-.404-5.382-1.211-1.576-.83-2.812-1.962-3.71-3.397-.897-1.457-1.345-3.105-1.345-4.944s.448-3.476 1.346-4.91c.897-1.458 2.133-2.59 3.709-3.397C51.187.403 52.98 0 54.972 0c2.014 0 3.808.403 5.383 1.21 1.598.808 2.834 1.94 3.71 3.398.896 1.435 1.345 3.072 1.345 4.91s-.449 3.486-1.346 4.944c-.875 1.435-2.111 2.567-3.708 3.397-1.576.807-3.37 1.21-5.384 1.21zm0-5.92c.854 0 1.554-.314 2.1-.942.548-.65.822-1.547.822-2.69 0-1.144-.274-2.03-.821-2.657-.547-.628-1.247-.942-2.1-.942-.854 0-1.554.314-2.101.942-.547.628-.82 1.513-.82 2.657 0 1.143.273 2.04.82 2.69.547.628 1.247.942 2.1.942z"/><path d="M74.17 19.07c-2.034 0-3.861-.404-5.48-1.211-1.598-.807-2.856-1.94-3.775-3.397-.897-1.457-1.346-3.105-1.346-4.944s.449-3.476 1.346-4.91c.919-1.458 2.177-2.59 3.774-3.397C70.31.403 72.136 0 74.171 0c2.188 0 4.059.482 5.612 1.446C81.337 2.41 82.41 3.744 83 5.448l-5.744 2.893c-.7-1.615-1.74-2.422-3.118-2.422-.875 0-1.608.314-2.2.942-.568.628-.853 1.513-.853 2.657 0 1.166.285 2.063.854 2.69.59.628 1.324.942 2.2.942 1.377 0 2.417-.807 3.117-2.421L83 13.62c-.59 1.704-1.663 3.038-3.217 4.002-1.553.965-3.424 1.446-5.612 1.446zM8.423 23.141c1.087.416 1.63 1.193 1.63 2.33 0 .918-.356 1.64-1.068 2.165-.713.514-1.758.771-3.134.771H0V18.371h5.561c1.328 0 2.361.233 3.098.697.736.453 1.105 1.095 1.105 1.927a2.3 2.3 0 01-.345 1.247c-.229.367-.561.667-.996.9zm-4.837-.807h1.612c.592 0 .888-.238.888-.715 0-.233-.073-.404-.217-.514-.133-.11-.357-.165-.67-.165H3.585v1.394zm1.902 3.504c.592 0 .888-.25.888-.752 0-.477-.296-.715-.888-.715H3.586v1.467H5.49z"/><path d="M14.87 28.59c-1.099 0-2.089-.22-2.97-.66-.87-.453-1.552-1.07-2.048-1.853-.495-.795-.742-1.695-.742-2.697 0-1.003.247-1.896.742-2.68a5.041 5.041 0 012.048-1.852c.88-.44 1.871-.66 2.97-.66 1.111 0 2.102.22 2.971.66.881.44 1.564 1.058 2.047 1.853.495.782.742 1.675.742 2.679 0 1.003-.247 1.902-.742 2.696-.483.783-1.165 1.401-2.047 1.854-.87.44-1.86.66-2.971.66zm0-3.229c.47 0 .857-.171 1.16-.514.301-.354.453-.844.453-1.467 0-.624-.152-1.107-.453-1.45a1.477 1.477 0 00-1.16-.514 1.48 1.48 0 00-1.16.514c-.302.343-.452.826-.452 1.45 0 .623.151 1.113.453 1.467.302.343.688.514 1.16.514z"/><path d="M30.742 18.371v10.036h-4.094V21.6h-1.866l-.054 1.302c-.048 1.297-.181 2.361-.398 3.193-.218.831-.58 1.473-1.087 1.926-.495.44-1.178.66-2.047.66-.544 0-1.178-.091-1.902-.274l.163-3.358c.193.024.332.036.416.036.496 0 .822-.177.979-.532.157-.367.253-.972.29-1.816l.144-4.366h9.456z"/><path d="M36.145 28.59c-1.099 0-2.089-.22-2.97-.66-.87-.453-1.552-1.07-2.047-1.853-.495-.795-.743-1.695-.743-2.697 0-1.003.247-1.896.743-2.68a5.036 5.036 0 012.047-1.852c.881-.44 1.871-.66 2.97-.66 1.111 0 2.101.22 2.971.66.882.44 1.564 1.058 2.047 1.853.495.782.743 1.675.743 2.679 0 1.003-.248 1.902-.743 2.696-.483.783-1.165 1.401-2.047 1.854-.87.44-1.86.66-2.971.66zm0-3.229c.471 0 .858-.171 1.16-.514.302-.354.452-.844.452-1.467 0-.624-.15-1.107-.453-1.45a1.475 1.475 0 00-1.159-.514c-.47 0-.857.172-1.159.514-.302.343-.453.826-.453 1.45 0 .623.151 1.113.453 1.467.302.343.688.514 1.16.514z"/><path d="M41.542 18.371h4.076v3.523h2.79V18.37h4.075v10.036h-4.076V25.14h-2.79v3.266h-4.075V18.371z"/><path d="M62.156 21.6H59.13v6.807h-4.076V21.6H52.03v-3.229h10.127v3.23z"/><path d="M71.765 23.38c0 .06-.019.385-.055.972h-6.883c.136.369.391.68.724.88.339.196.761.294 1.268.294.435 0 .797-.055 1.087-.165.302-.11.628-.3.978-.569l2.138 2.183c-.966 1.077-2.41 1.615-4.33 1.615-1.195 0-2.246-.22-3.151-.66-.906-.453-1.606-1.077-2.101-1.872-.496-.795-.743-1.688-.743-2.678 0-1.003.241-1.896.724-2.68a5.096 5.096 0 012.011-1.852c.857-.44 1.817-.66 2.88-.66 1.003 0 1.914.201 2.736.605a4.66 4.66 0 011.974 1.78c.495.782.743 1.718.743 2.807zm-5.416-2.367c-.423 0-.773.116-1.051.349-.278.232-.46.562-.544.99h3.188c-.084-.415-.265-.74-.543-.972-.278-.245-.628-.367-1.05-.367z"/><path d="M78.218 18.188c.87 0 1.666.214 2.39.642.737.416 1.317 1.021 1.74 1.816.434.795.652 1.712.652 2.752 0 1.04-.218 1.957-.652 2.752a4.552 4.552 0 01-1.74 1.816 4.717 4.717 0 01-2.39.624c-1.1 0-1.938-.288-2.518-.862v4.238h-4.094V18.37h3.895v.826c.591-.673 1.497-1.01 2.717-1.01zm-.978 7.173c.47 0 .857-.171 1.159-.514.302-.342.453-.826.453-1.45 0-.623-.151-1.106-.453-1.449a1.454 1.454 0 00-1.16-.532c-.47 0-.857.178-1.159.532-.301.343-.453.826-.453 1.45s.152 1.107.453 1.45c.302.342.689.513 1.16.513z"/></g><defs><clipPath id="aa"><path d="M0 0h83v32H0z"/></clipPath></defs></svg></svg>